HIERARCHY
ROOT Hips
{
    OFFSET 0.000000 0.000000 0.000000
    CHANNELS 6 Xposition Yposition Zposition Zrotation Xrotation Yrotation
    JOINT Spine
    {
        OFFSET -0.000000 6.925600 0.000000
        CHANNELS 3 Zrotation Xrotation Yrotation
        JOINT Spine1
        {
            OFFSET -0.000000 16.343796 0.000000
            CHANNELS 3 Zrotation Xrotation Yrotation
            JOINT Neck
            {
                OFFSET -0.000000 18.032967 0.000000
                CHANNELS 3 Zrotation Xrotation Yrotation
                JOINT Head
                {
                    OFFSET -0.000000 13.091072 1.689171
                    CHANNELS 3 Zrotation Xrotation Yrotation
                    End Site
                    {
                        OFFSET -0.000000 16.891708 0.000000
                    }
                }
            }
            JOINT LeftShoulder
            {
                OFFSET 3.336773 14.146137 -0.012206
                CHANNELS 3 Zrotation Xrotation Yrotation
                JOINT LeftArm
                {
                    OFFSET 11.765518 0.000000 0.000000
                    CHANNELS 3 Zrotation Xrotation Yrotation
                    JOINT LeftForeArm
                    {
                        OFFSET 25.163450 0.000000 0.000000
                        CHANNELS 3 Zrotation Xrotation Yrotation
                        JOINT LeftHand
                        {
                            OFFSET 21.783554 0.000000 0.000000
                            CHANNELS 3 Zrotation Xrotation Yrotation
                            End Site
                            {
                                OFFSET 12.668781 0.000000 0.000000
                            }
                        }
                    }
                }
            }
            JOINT RightShoulder
            {
                OFFSET -3.409204 14.146137 -0.012206
                CHANNELS 3 Zrotation Xrotation Yrotation
                JOINT RightArm
                {
                    OFFSET -11.765518 0.000000 0.000000
                    CHANNELS 3 Zrotation Xrotation Yrotation
                    JOINT RightForeArm
                    {
                        OFFSET -25.163450 0.000000 0.000000
                        CHANNELS 3 Zrotation Xrotation Yrotation
                        JOINT RightHand
                        {
                            OFFSET -21.783554 0.000000 0.000000
                            CHANNELS 3 Zrotation Xrotation Yrotation
                            End Site
                            {
                                OFFSET -12.668781 0.000000 0.000000
                            }
                        }
                    }
                }
            }
        }
    }
    JOINT LeftUpLeg
    {
        OFFSET 8.445854 0.000000 0.000000
        CHANNELS 3 Zrotation Xrotation Yrotation
        JOINT LeftLeg
        {
            OFFSET -0.000000 -40.674755 0.000000
            CHANNELS 3 Zrotation Xrotation Yrotation
            JOINT LeftFoot
            {
                OFFSET -0.000000 -37.111794 0.000000
                CHANNELS 3 Zrotation Xrotation Yrotation
                JOINT LeftToeBase
                {
                    OFFSET -0.000000 -5.489805 12.668781
                    CHANNELS 3 Zrotation Xrotation Yrotation
                    End Site
                    {
                        OFFSET -0.000000 0.000000 3.378341
                    }
                }
            }
        }
    }
    JOINT RightUpLeg
    {
        OFFSET -8.445854 0.000000 0.000000
        CHANNELS 3 Zrotation Xrotation Yrotation
        JOINT RightLeg
        {
            OFFSET -0.000000 -40.674755 0.000000
            CHANNELS 3 Zrotation Xrotation Yrotation
            JOINT RightFoot
            {
                OFFSET -0.000000 -37.111794 0.000000
                CHANNELS 3 Zrotation Xrotation Yrotation
                JOINT RightToeBase
                {
                    OFFSET -0.000000 -5.489805 12.668781
                    CHANNELS 3 Zrotation Xrotation Yrotation
                    End Site
                    {
                        OFFSET -0.000000 0.000000 3.378341
                    }
                }
            }
        }
    }
}
MOTION
Frames:    10
Frame Time:    0.008333
35.532928    84.692070    158.106842    1.125742    -0.478996    1.962152    -6.546981    -3.724813    -5.106462    4.946805    9.430634    -2.034491    -2.894305    1.925820    -0.224091    4.556758    -0.276586    -1.244315    -0.778701    8.888464    9.311605    -46.890625    41.773521    -38.305923    171.683136    68.817719    -169.912277    -7.514971    33.573673    82.139526    -2.385868    8.509255    -2.452937    45.781460    44.729877    32.944183    -0.212871    -0.032619    22.586475    -4.329929    -0.133431    3.831433    5.237218    -3.300496    0.841955    1.714455    8.916386    -3.284429    -7.059611    -6.775484    14.025927    -0.929106    -1.488179    -0.626876    -0.217802    1.841887    -4.209952    -7.323153    1.981516    -4.973361    7.270742    -3.359941    0.817707    1.033041    -1.678225    -0.153829    
35.468517    84.690834    158.106949    1.140485    -0.463833    2.216173    -6.566828    -3.696826    -5.197313    4.940284    9.397454    -2.063087    -2.893457    1.909131    -0.320519    4.470595    -0.255948    -1.333259    -0.797494    8.925028    9.335312    -47.042202    41.945572    -37.425537    176.824066    39.531231    -172.111542    -8.237412    5.239535    76.908752    -2.371516    8.504403    -2.444391    43.848122    46.356602    33.714581    -0.122154    -1.040389    23.845074    -4.561847    -1.134973    3.022229    5.249527    -3.377137    0.866886    1.737726    8.901703    -3.380121    -7.090670    -6.526875    14.125239    -1.161696    -1.793208    -0.644454    -0.176235    1.790448    -4.370696    -7.334580    2.117577    -5.047718    7.243975    -3.429104    0.817876    1.034514    -1.678416    -0.158434    
35.410091    84.692726    158.108139    1.159034    -0.464797    2.454179    -6.558456    -3.630862    -5.272694    4.896180    9.329990    -2.083037    -2.890341    1.909791    -0.417148    4.404515    -0.255205    -1.424226    -0.794435    8.937833    9.342870    -47.203423    42.089767    -36.778835    177.589676    31.652098    -170.905823    -8.730847    -2.270435    74.240768    -2.349589    8.525559    -2.457630    45.650860    44.810200    33.138268    -0.168983    -0.077790    22.445936    -4.294695    -0.185493    3.756622    5.260218    -3.425366    0.884322    1.751644    8.880895    -3.414533    -7.258036    -6.706617    14.010295    -1.154098    -1.649555    -0.339409    -0.138899    1.761121    -4.502386    -7.355115    2.239060    -5.118784    7.218079    -3.501159    0.805196    1.034219    -1.667588    -0.179039    
35.352837    84.694450    158.109314    1.183015    -0.459075    2.696822    -6.571347    -3.580610    -5.358577    4.875145    9.271034    -2.108230    -2.919291    1.902100    -0.522226    4.387306    -0.217723    -1.536166    -0.793879    8.957059    9.340095    -47.335125    42.228470    -36.331688    177.592224    29.999413    -169.752914    -8.255159    -4.225423    72.589920    -2.348114    8.514904    -2.437210    45.698582    44.806561    33.138741    -0.177086    -0.059396    22.417315    -4.343333    -0.168553    3.734078    5.257206    -3.484497    0.876479    1.772441    8.865780    -3.435782    -7.360609    -6.702907    13.995849    -1.254158    -1.713398    -0.192159    -0.105824    1.732886    -4.615776    -7.378460    2.352525    -5.212898    7.203659    -3.553655    0.788285    1.050194    -1.685942    -0.196523    
35.291897    84.696121    158.108261    1.191217    -0.443161    2.941192    -6.591361    -3.542464    -5.442527    4.882938    9.225780    -2.135424    -2.930428    1.889174    -0.649219    4.343884    -0.202466    -1.663761    -0.778449    8.962187    9.336432    -47.457993    42.352261    -36.031536    177.263412    30.511343    -168.804123    -6.974754    -4.498105    71.341164    -2.344697    8.469501    -2.409844    45.880680    44.705261    32.991127    -0.187066    0.015113    22.479452    -4.315657    -0.085635    3.695131    5.280027    -3.556341    0.880694    1.782349    8.852855    -3.477738    -7.478315    -6.696517    13.974764    -2.614082    -3.219347    0.382062    -0.048928    1.697186    -4.712986    -7.408909    2.450630    -5.333844    7.192998    -3.581948    0.779056    1.055465    -1.699064    -0.188179    
35.237202    84.697426    158.112411    1.202075    -0.436783    3.168094    -6.594953    -3.515417    -5.515098    4.869970    9.195679    -2.157771    -2.946450    1.877056    -0.763906    4.325109    -0.173738    -1.782981    -0.764297    8.992443    9.343266    -47.553699    42.457886    -35.857666    176.521927    32.799164    -167.897659    -4.076533    -4.017196    69.952965    -2.337937    8.444669    -2.390123    45.946102    44.670792    32.968662    -0.215590    0.035586    22.513388    -4.279521    -0.057646    3.658583    5.298627    -3.599594    0.925452    1.795595    8.819499    -3.561996    -7.584625    -6.706905    13.951085    -2.707142    -3.282293    0.520762    -0.002307    1.679280    -4.799005    -7.498329    2.502318    -5.612573    7.255309    -3.594265    0.930112    1.047898    -1.679263    -0.202069    
35.189026    84.700150    158.117859    1.210939    -0.432524    3.387313    -6.584871    -3.506608    -5.588481    4.845348    9.190894    -2.180328    -2.955108    1.872650    -0.885475    4.288961    -0.176926    -1.905067    -0.762994    9.010157    9.356383    -47.710388    42.508137    -35.704468    175.252792    36.732552    -166.861557    0.438067    -3.001330    68.029915    -2.323819    8.439686    -2.380329    45.883526    44.650036    33.072861    -0.145534    0.015181    22.521490    -4.371672    -0.095683    3.664823    5.319612    -3.636364    0.997634    1.807635    8.782332    -3.674932    -7.704890    -6.718232    13.922388    -2.814437    -3.373828    0.635389    0.033306    1.668275    -4.969306    -7.449518    2.605970    -5.450530    7.168656    -3.664740    0.734077    1.060102    -1.709157    -0.183741    
35.138996    84.703720    158.118103    1.219105    -0.426396    3.601069    -6.588140    -3.442767    -5.649343    4.847816    9.109179    -2.198539    -2.989763    1.865095    -0.989641    4.298476    -0.143950    -2.020092    -0.764558    9.055828    9.390773    -47.880844    42.548634    -35.612385    173.402756    41.857521    -165.539093    5.835224    -1.758655    65.383247    -2.315425    8.436575    -2.382710    45.962872    44.617805    33.035252    -0.209139    0.003451    22.617872    -4.378666    -0.093590    3.621156    5.348501    -3.676670    1.041830    1.802846    8.754054    -3.768168    -7.804084    -6.793113    13.899391    -2.868781    -3.407013    0.726125    0.070089    1.640059    -4.913641    -7.452892    2.726148    -5.667701    7.007602    -4.845994    0.791869    0.796998    -1.405770    0.099016    
35.093796    84.717079    158.110855    1.266845    -0.358465    3.811702    -6.655294    -3.456929    -5.718334    4.873063    9.054269    -2.220225    -2.994552    1.891947    -1.106134    4.262567    -0.174181    -2.136132    -0.772800    9.087687    9.414830    -48.042419    42.589951    -35.549919    170.635544    48.231972    -163.559418    12.220037    -0.680915    61.537510    -2.310024    8.412704    -2.339424    45.987980    44.636070    33.024261    -0.276598    -0.029380    22.700731    -4.444630    -0.112264    3.625907    5.333901    -3.787554    1.069273    1.790233    8.735975    -3.831305    -7.936076    -6.848366    13.863950    -2.089650    -2.394480    0.730812    0.056900    1.550437    -4.971494    -7.457877    2.823120    -5.774816    6.916800    -4.233866    0.826389    0.882346    -1.131867    -0.722546    
35.051189    84.720169    158.117676    1.275979    -0.356730    4.002686    -6.646682    -3.452194    -5.762636    4.859614    9.049192    -2.233885    -2.984668    1.897817    -1.227844    4.212615    -0.188635    -2.253644    -0.756250    9.107367    9.432911    -48.248558    42.710255    -35.502911    165.124710    57.379654    -159.255219    20.984720    -0.540724    54.847366    -2.307899    8.373749    -2.318968    45.909611    44.708534    33.130489    -0.264177    -0.115647    22.720072    -4.475016    -0.207017    3.683792    5.363933    -3.809562    1.098273    1.775678    8.704726    -3.883499    -8.059211    -6.949379    13.820467    -2.112603    -2.426033    0.726864    0.082658    1.547895    -5.015423    -7.459075    2.890516    -5.893371    7.097853    -3.805888    0.684981    1.074634    -1.721837    -0.207688    
